<?xml version="1.0" encoding="UTF-8"?>
<svg width="329px" height="188px" viewBox="0 0 329 188" version="1.1" xmlns="http://www.w3.org/2000/svg" xmlns:xlink="http://www.w3.org/1999/xlink">
    <title>编组 18</title>
    <defs>
        <path d="M0,8.00298054 C0,3.58305644 3.58269526,0 8.00006163,0 L320.999938,0 C325.41825,0 329,3.58767557 329,8.00298054 L329,179.997019 C329,184.416944 325.417305,188 320.999938,188 L8.00006163,188 C3.58174959,188 0,184.412324 0,179.997019 L0,8.00298054 Z" id="path-1"></path>
        <mask id="mask-2" maskContentUnits="userSpaceOnUse" maskUnits="objectBoundingBox" x="0" y="0" width="329" height="188" fill="white">
            <use xlink:href="#path-1"></use>
        </mask>
    </defs>
    <g id="小程序" stroke="none" stroke-width="1" fill="none" fill-rule="evenodd">
        <g id="iPhone-8备份-117" transform="translate(-23.000000, -705.000000)">
            <g id="编组-9" transform="translate(23.000000, 675.000000)">
                <g id="编组-18" transform="translate(0.000000, 30.000000)">
                    <g id="编组备份-5" fill="#FFFFFF" stroke="#D9D9D9" stroke-dasharray="4" stroke-width="2">
                        <use id="Rectangle-26-Copy-23" mask="url(#mask-2)" xlink:href="#path-1"></use>
                    </g>
                    <path d="M0,8.00298054 C0,3.58305644 3.58269526,0 8.00006163,0 L320.999938,0 C325.41825,0 329,3.58767557 329,8.00298054 L329,179.997019 C329,184.416944 325.417305,188 320.999938,188 L8.00006163,188 C3.58174959,188 0,184.412324 0,179.997019 L0,8.00298054 Z" id="Rectangle-26-Copy-23备份-6" fill="#ACACAC" opacity="0.188419887"></path>
                    <g id="编组-14" transform="translate(126.000000, 52.000000)">
                        <circle id="椭圆形备份-3" fill="#FFFFFF" cx="38.5" cy="38.5" r="38.5"></circle>
                        <path d="M56.2609172,57 L54.3913879,57 L54.3913879,57 L22.6087433,57 C22.608694,57 22.608694,57 22.608694,57 L20.7392129,57 C18.6741159,57 17,55.3434599 17,53.2999971 L17,28.3250053 C17,26.2814947 18.6741159,24.6250024 20.7392129,24.6250024 L22.608694,24.6250024 L22.6087433,24.6250024 L22.6087433,24.6250024 L28.6849498,24.6250024 L31.0217796,20.9250473 C31.0217796,20.4140693 32.3751587,20 32.8914101,20 L44.1087885,20 C44.6249387,20 45.9783179,20.4140736 45.9783179,20.9250473 L48.3153452,24.6250024 L54.3914071,24.6250024 L56.2609365,24.6250024 C58.3260335,24.6250024 60,26.2814899 60,28.3250053 L60,53.2999971 C60,55.3434599 58.3260335,57 56.2609365,57 L56.2609172,57 Z M38.0000476,28 C31.3726174,28 26,33.3726115 26,40.0000599 C26,46.6275561 31.3726174,52 38.0000476,52 C44.6272874,52 50,46.6276992 50,40.0006324 L50,39.9995584 C49.9997566,33.3723008 44.6272874,28 38.0000476,28 L38.0000476,28 Z M38.0000229,48 C33.5817113,48 30,44.4184489 30,40.0000689 C30,35.5818083 33.5817251,32 38.0000229,32 C42.4183345,32 46,35.5817853 46,40.0000689 C46,44.4184719 42.4183208,48 38.0000229,48 Z" id="形状备份-3" fill="#F8E0BD" fill-rule="nonzero"></path>
                    </g>
                </g>
            </g>
        </g>
    </g>
</svg>