<?xml version="1.0" encoding="UTF-8"?>
<svg width="30px" height="30px" viewBox="0 0 30 30" version="1.1" xmlns="http://www.w3.org/2000/svg" xmlns:xlink="http://www.w3.org/1999/xlink">
    <title>切片</title>
    <g id="小程序" stroke="none" stroke-width="1" fill="none" fill-rule="evenodd">
        <g id="iPhone-8备份-126" transform="translate(-172.000000, -574.000000)" fill-rule="nonzero">
            <g id="编组-2备份-2" transform="translate(12.000000, 562.000000)">
                <g id="草稿" transform="translate(160.000000, 12.000000)">
                    <path d="M0,15 L0,15 C0,23.2842573 6.71574287,30 15,30 C23.2842571,30 30,23.2842573 30,15 C30,15 30,15 30,15 L30,15 C30,6.71574275 23.2842571,0 15,0 C6.71574287,0 0,6.71574275 0,15 L0,15 Z" id="路径" fill="#515151"></path>
                    <path d="M11.8976851,23.3470536 C13.9854498,24.2176488 16.3147742,24.2176488 18.402539,23.3470536 C20.9527178,22.2810187 22.9300553,19.9179745 23.561561,17.1604975 C23.7893172,16.169085 23.8341782,15.1527983 23.7306527,14.1507255 L24.4622331,14.9040569 C24.6865384,15.142138 25.0178201,15.2380811 25.3318475,15.1527983 C25.6424241,15.0675155 25.8874345,14.8187741 25.9702549,14.4954101 C26.0530754,14.1755996 25.9599024,13.830915 25.7286954,13.5999408 L23.2440827,11.0414569 C22.8955468,10.6825585 22.3296073,10.6825585 21.9810713,11.0414569 L19.4964587,13.5999408 C19.1479228,13.9588392 19.1479228,14.541605 19.4964587,14.9005034 C19.8449946,15.2594018 20.4109342,15.2594018 20.7594701,14.9005034 L21.6256337,14.0085875 C21.9638171,16.1477643 21.2805486,18.326029 19.789781,19.8611193 C17.4604567,22.259698 13.8025547,22.4693515 11.2351217,20.4971869 L9.81682198,22.0962393 C9.81682198,22.0997927 11.1315962,23.0236897 11.8976851,23.3470536 Z M18.1023149,6.6529464 C16.0145502,5.7823512 13.6852258,5.7823512 11.597461,6.6529464 C9.04728223,7.71898134 7.06994468,10.0820255 6.43843897,12.8395025 C6.21068281,13.830915 6.16582175,14.8472017 6.26934728,15.8492745 L5.53776689,15.0959431 C5.31346158,14.857862 4.9821799,14.7619189 4.66815247,14.8472017 C4.35757589,14.9324845 4.11256548,15.1812259 4.02974506,15.5045899 C3.94692464,15.8244004 4.04009761,16.169085 4.27130462,16.4000592 L6.75591725,18.9585431 C7.10445319,19.3174415 7.67039273,19.3174415 8.01892867,18.9585431 L10.5035413,16.4000592 C10.8520772,16.0411608 10.8520772,15.458395 10.5035413,15.0994966 C10.1550054,14.7405982 9.58906582,14.7405982 9.24052988,15.0994966 L8.37436631,15.9914125 C8.03618293,13.8522357 8.7194514,11.673971 10.210219,10.1388807 C12.5395433,7.74030204 16.1974453,7.5306485 18.7648783,9.50281315 L20.183178,7.90376073 C20.183178,7.90020728 18.8684038,6.97631033 18.1023149,6.6529464 L18.1023149,6.6529464 Z" id="形状" fill="#FFFFFF"></path>
                </g>
            </g>
        </g>
    </g>
</svg>