<?xml version="1.0" encoding="UTF-8"?>
<svg width="30px" height="30px" viewBox="0 0 30 30" version="1.1" xmlns="http://www.w3.org/2000/svg" xmlns:xlink="http://www.w3.org/1999/xlink">
    <title>切片</title>
    <g id="小程序" stroke="none" stroke-width="1" fill="none" fill-rule="evenodd">
        <g id="iPhone-8备份-126" transform="translate(-172.000000, -303.000000)" fill-rule="nonzero">
            <g id="编组-2备份" transform="translate(12.000000, 291.000000)">
                <g id="编组-14" transform="translate(160.000000, 12.000000)">
                    <path d="M0,15 L0,15 C0,23.2842886 6.71574085,30 15,30 C23.2842886,30 30,23.2842592 30,15 L30,15 C30,6.71571145 23.2842592,0 15,0 C6.71571145,0 0,6.71574085 0,15 L0,15 Z" id="路径" fill="#E17878"></path>
                    <path d="M14.9956029,5 L14.9956028,5 C13.8934626,5 13,5.76632289 13,6.71160838 C13,6.71160838 13,6.71160841 13,6.71160841 L13,18.1649606 L13,18.1649608 C13,19.1123301 13.8954303,19.8803243 15,19.8803243 C16.1045697,19.8803243 17,19.1123301 17,18.1649608 L17,6.71160867 L17,6.71159204 C17,5.76630654 16.1065374,5 15.0043972,5 C15.0014603,5 14.9985234,5 14.9955866,5 L14.9956029,5 Z M14.9956029,21.5730279 L14.9956028,21.5730279 C13.8934626,21.5730279 13,22.3393508 13,23.2846363 C13,23.2846363 13,23.2846363 13,23.2846363 L13,23.2846366 C13,24.2320058 13.8954303,25 15,25 C16.1045697,25 17,24.2320058 17,23.2846366 L17,23.2846199 C17,22.3393344 16.1065374,21.5730279 15.0043972,21.5730279 C15.0014603,21.5730279 14.9985234,21.5730279 14.9955866,21.5730279 L14.9956029,21.5730279 Z" id="形状" fill="#FFFFFF"></path>
                </g>
            </g>
        </g>
    </g>
</svg>