<?xml version="1.0" encoding="UTF-8"?>
<svg width="30px" height="30px" viewBox="0 0 30 30" version="1.1" xmlns="http://www.w3.org/2000/svg" xmlns:xlink="http://www.w3.org/1999/xlink">
    <title>切片</title>
    <g id="小程序" stroke="none" stroke-width="1" fill="none" fill-rule="evenodd">
        <g id="iPhone-8备份-130" transform="translate(-172.000000, -845.000000)" fill-rule="nonzero">
            <g id="编组-2备份-3" transform="translate(12.000000, 833.000000)">
                <g id="编组-14" transform="translate(160.000000, 12.000000)">
                    <path d="M0,15 L0,15 C0,23.2842886 6.71574085,30 15,30 C23.2842886,30 30,23.2842592 30,15 L30,15 C30,6.71571145 23.2842592,0 15,0 C6.71571145,0 0,6.71574085 0,15 L0,15 Z" id="路径" fill="#5F6EFF"></path>
                    <path d="M7.99560288,13 L7.9956028,13 C6.89346261,13 6,13.8944606 6,14.9978084 C6,14.9978084 6,14.9978084 6,14.9978084 L6,14.9978087 C6,16.1035886 6.89543032,17 8,17 C9.10456968,17 10,16.1035886 10,14.9978087 L10,14.9977893 C10,13.8944415 9.10653739,13 8.0043972,13 C8.00146032,13 7.99852342,13 7.99558657,13 L7.99560288,13 Z" id="形状" fill="#FFFFFF"></path>
                    <path d="M14.9956029,13 L14.9956028,13 C13.8934626,13 13,13.8944606 13,14.9978084 C13,14.9978084 13,14.9978084 13,14.9978084 L13,14.9978087 C13,16.1035886 13.8954303,17 15,17 C16.1045697,17 17,16.1035886 17,14.9978087 L17,14.9977893 C17,13.8944415 16.1065374,13 15.0043972,13 C15.0014603,13 14.9985234,13 14.9955866,13 L14.9956029,13 Z" id="形状备份" fill="#FFFFFF"></path>
                    <path d="M21.9956029,13 L21.9956028,13 C20.8934626,13 20,13.8944606 20,14.9978084 C20,14.9978084 20,14.9978084 20,14.9978084 L20,14.9978087 C20,16.1035886 20.8954303,17 22,17 C23.1045697,17 24,16.1035886 24,14.9978087 L24,14.9977893 C24,13.8944415 23.1065374,13 22.0043972,13 C22.0014603,13 21.9985234,13 21.9955866,13 L21.9956029,13 Z" id="形状备份-2" fill="#FFFFFF"></path>
                </g>
            </g>
        </g>
    </g>
</svg>