<?xml version="1.0" encoding="UTF-8"?>
<svg width="30px" height="30px" viewBox="0 0 30 30" version="1.1" xmlns="http://www.w3.org/2000/svg" xmlns:xlink="http://www.w3.org/1999/xlink">
    <title>切片</title>
    <g id="小程序" stroke="none" stroke-width="1" fill="none" fill-rule="evenodd">
        <g id="iPhone-8备份-126" transform="translate(-172.000000, -86.000000)" fill="#4FC480" fill-rule="nonzero">
            <g id="编组-2" transform="translate(12.000000, 74.000000)">
                <g id="支付成功备份" transform="translate(160.000000, 12.000000)">
                    <path d="M15,30 C6.71573826,30 0,23.2842282 0,15 C0,6.71573826 6.71573826,0 15,0 C23.2842617,0 30,6.71573826 30,15 C30,23.2842282 23.2842617,30 15,30 Z M23.0955034,10.4375839 L22.422953,9.82006711 C22.3623826,9.77020134 22.2727852,9.7683557 22.2101007,9.81577181 L12.4598322,17.3706376 C12.3294631,17.4641946 12.1498658,17.4679866 12.0149329,17.3801342 L8.05761745,14.5591946 L8.05761745,14.5591946 C8.02670705,14.5365753 7.98820638,14.5268749 7.95026846,14.5321477 C7.91194631,14.5374832 7.87785235,14.5571812 7.85563759,14.5868456 L7.15808725,15.4716443 C7.10939598,15.5336913 7.11426175,15.619396 7.16946309,15.6763087 L12.0444966,20.3689933 C12.1505369,20.4715772 12.3299329,20.475906 12.4400336,20.3754362 L23.0943289,10.6225503 C23.1471477,10.5744295 23.1509732,10.4889933 23.0955034,10.4375839 L23.0955034,10.4375839 Z" id="形状"></path>
                </g>
            </g>
        </g>
    </g>
</svg>